<?xml version="1.0" encoding="UTF-8" standalone="no"?>
<svg xmlns="http://www.w3.org/2000/svg" version="1.1" viewBox="0.00 0.00 1080.00 1080.00">
  <path fill="#0003ff" d="   M 388.62 151.75   Q 389.09 128.38 388.73 104.98   A 0.66 0.65 -0.4 0 1 389.39 104.32   Q 496.33 104.34 603.21 104.33   Q 608.54 104.33 614.78 104.07   Q 622.37 103.76 626.37 103.68   Q 626.75 103.67 627.36 103.46   Q 628.11 103.21 628.35 103.20   Q 656.05 102.27 682.06 113.54   C 705.62 123.76 723.71 140.89 734.72 163.80   Q 747.38 190.17 747.12 219.09   Q 747.12 219.20 746.97 221.33   Q 745.39 243.17 746.17 273.15   A 0.86 0.85 89.7 0 1 745.31 274.03   Q 634.35 273.25 519.00 273.39   Q 507.62 273.40 488.05 271.56   Q 468.03 269.68 447.34 259.39   C 417.09 244.35 397.87 217.58 390.78 184.80   Q 387.98 171.84 387.32 155.07   Q 387.30 154.56 387.59 154.15   Q 388.60 152.71 388.62 151.75   Z"></path>
  <path fill="#0003ff" d="   M 569.99 462.48   A 0.67 0.67 0.0 0 0 569.34 463.14   Q 569.15 476.63 568.64 521.58   C 568.56 528.05 568.02 535.23 567.57 539.32   Q 564.63 566.04 550.47 589.63   C 538.12 610.20 518.94 625.16 496.32 633.06   Q 481.29 638.31 460.58 640.25   Q 451.93 641.06 444.78 640.47   Q 436.81 639.81 436.72 639.81   Q 415.81 638.82 390.65 639.23   A 1.73 1.73 0.0 0 1 388.89 637.50   Q 388.90 551.58 388.88 426.09   Q 388.88 423.33 388.71 418.41   Q 388.57 414.39 388.62 410.37   Q 388.62 409.86 388.26 409.51   L 387.51 408.75   Q 387.11 408.35 387.19 407.80   Q 388.11 400.72 388.89 392.48   Q 389.76 383.30 391.13 377.58   Q 393.82 366.44 399.95 353.68   Q 414.68 323.03 444.81 306.99   Q 461.79 297.95 476.35 295.54   Q 493.34 292.73 496.82 291.78   A 0.74 0.73 -26.2 0 1 497.61 292.04   Q 498.51 293.18 499.50 293.18   C 626.19 293.22 705.85 293.02 744.90 293.27   A 1.12 1.12 0.0 0 1 746.01 294.40   Q 745.69 316.14 746.70 338.17   Q 746.75 339.12 747.13 339.73   C 747.53 340.34 747.84 341.17 747.82 341.82   Q 747.60 353.29 745.73 365.99   Q 740.95 398.32 720.82 422.97   C 705.87 441.29 683.80 453.46 660.73 458.69   Q 651.71 460.74 640.00 461.59   Q 619.75 463.05 605.75 462.83   Q 574.98 462.35 569.99 462.48   Z"></path>
  <path fill="#0003ff" d="   M 645.78 723.23   Q 646.47 723.23 646.45 722.54   Q 646.35 716.38 646.34 707.76   C 646.34 703.30 645.79 699.02 643.39 695.55   Q 637.73 687.35 628.28 687.22   Q 610.42 686.98 596.51 687.16   Q 594.76 687.18 592.47 687.04   A 0.98 0.98 0.0 0 1 591.55 686.06   L 591.55 669.68   Q 591.55 668.84 592.40 668.83   Q 614.01 668.63 631.75 669.18   C 646.32 669.63 658.42 680.49 662.97 693.52   Q 664.82 698.84 664.85 707.73   Q 664.89 717.48 664.76 722.61   A 0.67 0.67 0.0 0 0 665.43 723.30   Q 675.77 723.25 701.51 723.24   C 712.34 723.23 719.48 714.55 719.46 703.99   Q 719.42 684.89 719.46 670.07   A 0.75 0.75 0.0 0 1 720.21 669.32   L 736.89 669.32   Q 738.00 669.32 737.99 670.44   Q 737.94 673.98 737.96 698.57   Q 737.97 710.76 736.52 715.71   C 732.90 728.12 722.27 738.26 709.40 741.05   Q 705.58 741.88 696.55 741.90   Q 660.29 741.96 610.79 741.86   A 0.83 0.82 -0.3 0 0 609.96 742.69   C 610.05 747.92 610.36 753.64 609.25 758.44   Q 604.38 779.58 582.89 786.42   Q 578.96 787.67 570.23 787.65   Q 526.97 787.57 510.75 787.65   Q 492.37 787.74 480.89 774.11   Q 474.93 767.04 473.41 758.21   Q 472.54 753.20 472.57 746.29   Q 472.57 744.23 472.53 723.99   A 0.72 0.72 0.0 0 1 473.25 723.27   L 490.66 723.27   Q 491.31 723.27 491.30 723.92   Q 491.17 740.66 491.38 752.00   C 491.54 760.10 498.19 767.49 506.32 768.81   Q 507.56 769.01 516.20 769.02   Q 545.48 769.06 575.01 768.98   Q 577.60 768.98 581.02 767.24   Q 591.28 762.03 591.51 750.26   Q 591.58 746.66 591.50 742.52   A 0.67 0.67 0.0 0 0 590.83 741.87   L 573.77 741.87   A 0.61 0.60 -0.0 0 1 573.16 741.27   L 573.16 724.29   A 1.06 1.06 0.0 0 1 574.22 723.23   L 645.78 723.23   Z"></path>
  <path fill="#0003ff" d="   M 390.49 742.45   A 0.60 0.59 -0.5 0 0 389.89 741.87   L 372.72 741.87   A 0.69 0.69 0.0 0 1 372.03 741.18   L 372.03 724.19   A 0.97 0.97 0.0 0 1 373.00 723.22   Q 421.78 723.21 426.26 723.25   Q 431.02 723.29 433.79 722.05   Q 445.22 716.94 445.24 704.25   Q 445.26 698.13 445.46 669.85   A 0.47 0.46 88.7 0 1 445.90 669.38   Q 454.62 668.91 463.29 669.29   A 0.50 0.50 0.0 0 1 463.77 669.79   Q 463.92 678.15 464.00 696.79   Q 464.06 710.39 462.03 716.59   C 457.37 730.87 444.30 741.26 429.02 741.78   Q 420.94 742.06 409.89 741.78   A 1.00 0.99 88.9 0 0 408.87 742.84   C 409.47 751.69 408.99 761.13 404.19 769.09   Q 395.16 784.05 378.90 786.95   Q 375.08 787.63 358.95 787.64   Q 321.79 787.65 302.04 787.63   C 293.61 787.62 286.73 786.51 279.78 782.10   Q 267.58 774.36 263.71 760.76   Q 262.30 755.84 262.27 744.50   Q 262.26 739.30 262.23 723.84   A 0.60 0.60 0.0 0 1 262.83 723.24   L 280.26 723.24   A 0.86 0.86 0.0 0 1 281.12 724.10   Q 281.10 742.20 281.08 748.92   Q 281.05 754.82 282.41 757.94   Q 285.41 764.86 293.00 767.98   Q 296.11 769.26 301.75 769.12   Q 306.79 769.00 371.00 769.04   Q 384.09 769.05 388.92 757.73   C 390.87 753.17 390.67 748.14 390.49 742.45   Z"></path>
  <path fill="#0003ff" d="   M 746.86 685.90   L 746.86 669.96   A 0.34 0.33 -0.0 0 1 747.20 669.63   Q 772.13 669.45 792.01 669.94   Q 794.66 670.01 798.48 671.78   Q 814.12 679.05 818.77 695.28   Q 819.74 698.66 819.70 702.46   Q 819.63 708.33 819.53 709.74   C 818.54 724.42 807.54 736.62 793.81 740.50   Q 788.53 741.99 777.08 741.98   Q 767.21 741.97 747.26 741.88   A 0.38 0.38 0.0 0 1 746.88 741.50   L 746.88 723.88   A 0.60 0.60 0.0 0 1 747.47 723.28   Q 766.12 723.24 784.75 723.19   Q 787.80 723.18 790.44 721.97   Q 801.27 717.01 801.60 705.27   C 801.82 697.86 796.61 690.74 789.57 688.21   Q 786.54 687.12 780.31 687.13   Q 766.75 687.14 748.12 687.16   A 1.26 1.26 0.0 0 1 746.86 685.90   Z"></path>
  <path fill="#0003ff" d="   M 463.61 787.40   Q 463.37 787.63 463.22 787.63   Q 444.81 787.69 427.41 787.50   A 0.50 0.49 -89.4 0 1 426.93 787.00   L 426.93 769.76   A 0.73 0.73 0.0 0 1 427.66 769.03   Q 436.22 769.00 444.51 769.13   Q 444.85 769.14 445.12 768.87   Q 445.39 768.60 445.38 768.26   Q 445.27 759.97 445.31 751.41   A 0.73 0.73 0.0 0 1 446.05 750.68   L 463.29 750.72   A 0.50 0.49 -0.5 0 1 463.79 751.20   Q 463.94 768.60 463.84 787.01   Q 463.84 787.16 463.61 787.40   Z"></path>
  <rect fill="#0003ff" x="-9.23" y="-9.23" transform="translate(655.57,769.31) rotate(0.2)" width="18.46" height="18.46" rx="0.92"></rect>
  <rect fill="#0003ff" x="-18.43" y="-9.23" transform="translate(719.51,769.29) rotate(0.1)" width="36.86" height="18.46" rx="0.93"></rect>
  <path fill="#858585" d="   M 343.45 842.29   Q 343.36 842.38 343.32 842.40   Q 343.25 842.45 343.16 842.45   Q 333.99 842.58 325.90 842.52   Q 324.94 842.51 324.94 841.55   L 324.94 834.00   A 0.91 0.90 1.2 0 1 325.89 833.10   Q 329.58 833.26 333.76 833.16   Q 333.84 833.16 334.06 832.94   Q 334.28 832.72 334.28 832.64   Q 334.36 828.46 334.18 824.77   A 0.91 0.90 88.5 0 1 335.07 823.81   L 342.62 823.78   Q 343.58 823.77 343.60 824.73   Q 343.70 832.82 343.62 841.99   Q 343.62 842.08 343.57 842.15   Q 343.55 842.19 343.45 842.29   Z"></path>
  <path fill="#858585" d="   M 493.63 824.47   Q 493.65 844.17 493.62 863.85   Q 493.61 867.81 494.72 869.49   Q 496.52 872.22 500.52 872.28   Q 507.85 872.40 510.26 872.32   Q 514.59 872.19 516.43 869.14   Q 517.46 867.43 517.47 863.07   Q 517.48 857.43 517.46 850.69   Q 517.46 849.96 518.19 849.96   L 526.72 849.96   A 0.71 0.71 0.0 0 1 527.43 850.65   Q 527.45 851.21 527.47 864.90   Q 527.47 870.05 525.95 872.95   Q 523.35 877.91 518.76 880.42   Q 515.44 882.23 508.59 882.26   Q 498.64 882.29 497.94 882.16   Q 488.64 880.46 485.14 872.67   Q 483.69 869.44 483.79 862.66   Q 483.90 854.64 483.82 824.48   A 0.64 0.64 0.0 0 1 484.46 823.83   L 492.99 823.83   Q 493.63 823.83 493.63 824.47   Z"></path>
  <rect fill="#858585" x="707.71" y="823.82" width="9.86" height="58.40" rx="0.65"></rect>
  <rect fill="#858585" x="659.79" y="830.64" width="9.40" height="9.40" rx="0.65"></rect>
  <rect fill="#858585" x="-11.68" y="-4.72" transform="translate(596.86,845.47) rotate(0.1)" width="23.36" height="9.44" rx="0.75"></rect>
  <path fill="#858585" d="   M 763.29 870.86   C 761.84 875.60 758.11 879.47 753.55 881.24   Q 750.86 882.29 745.84 882.29   Q 734.67 882.30 726.87 882.17   A 0.41 0.41 0.0 0 1 726.47 881.76   L 726.47 872.97   Q 726.47 872.34 727.10 872.34   Q 736.00 872.37 745.75 872.36   Q 752.54 872.36 753.88 867.98   Q 755.23 863.60 749.61 859.79   Q 741.54 854.31 734.15 849.35   Q 733.63 848.99 733.98 848.47   L 738.91 841.19   A 0.41 0.41 0.0 0 1 739.47 841.08   Q 746.01 845.35 755.25 851.62   Q 759.41 854.43 761.04 856.81   C 763.83 860.83 764.75 866.13 763.29 870.86   Z"></path>
  <path fill="#858585" d="   M 418.76 871.50   Q 415.28 864.97 419.36 856.04   Q 419.70 855.29 419.00 854.86   Q 415.87 852.94 413.30 849.14   Q 413.04 848.75 413.37 848.41   L 418.92 842.87   Q 419.20 842.59 419.47 842.88   Q 423.60 847.44 428.26 847.38   Q 444.63 847.19 450.84 847.01   Q 460.11 846.74 464.46 848.52   C 473.10 852.05 477.62 863.09 473.38 871.98   Q 468.39 882.43 455.75 882.32   Q 427.59 882.07 406.38 882.34   Q 405.53 882.35 405.47 883.20   Q 404.69 894.76 394.99 900.75   Q 388.60 904.69 379.22 903.94   Q 378.64 903.89 378.46 903.34   L 376.76 898.27   Q 376.58 897.74 377.22 897.46   Q 377.65 897.27 386.04 894.39   Q 394.13 891.62 395.82 882.94   A 0.64 0.64 0.0 0 0 395.14 882.17   Q 389.04 882.71 384.36 881.83   Q 377.20 880.49 373.06 873.97   C 366.87 864.25 371.87 851.29 382.39 847.68   C 393.74 843.78 405.38 852.11 405.57 864.22   Q 405.63 868.06 405.53 871.50   A 0.82 0.82 0.0 0 0 406.35 872.34   L 418.25 872.34   A 0.58 0.57 -14.0 0 0 418.76 871.50   Z   M 382.51 859.21   Q 380.25 861.53 380.28 864.32   Q 380.37 871.69 388.30 872.33   Q 391.37 872.57 395.34 872.24   Q 395.41 872.23 395.63 872.00   Q 395.85 871.78 395.86 871.71   Q 396.09 867.73 395.77 864.67   Q 394.93 856.75 387.56 856.85   Q 384.77 856.89 382.51 859.21   Z   M 452.66 864.64   Q 452.68 867.73 451.26 871.34   A 0.74 0.74 0.0 0 0 451.92 872.35   Q 454.16 872.44 457.79 872.23   C 461.81 871.99 465.04 868.69 465.01 864.54   C 464.97 860.40 461.69 857.15 457.67 856.97   Q 454.04 856.82 451.80 856.95   A 0.74 0.74 0.0 0 0 451.15 857.97   Q 452.63 861.55 452.66 864.64   Z   M 442.49 864.73   A 7.60 7.60 0.0 0 0 434.89 857.13   A 7.60 7.60 0.0 0 0 427.29 864.73   A 7.60 7.60 0.0 0 0 434.89 872.33   A 7.60 7.60 0.0 0 0 442.49 864.73   Z"></path>
  <path fill="#858585" d="   M 679.32 860.25   A 0.54 0.54 0.0 0 0 679.12 859.44   Q 672.30 856.39 669.39 854.86   Q 665.99 853.08 663.12 853.38   C 659.42 853.77 654.98 856.78 653.31 859.83   Q 652.51 861.30 651.11 860.53   L 645.58 857.50   Q 644.08 856.67 645.09 855.34   C 646.17 853.92 647.97 850.88 649.72 849.24   Q 659.89 839.73 673.36 845.73   Q 680.45 848.89 687.97 852.69   A 6.65 6.64 -31.6 0 0 690.96 853.40   L 697.63 853.40   Q 698.85 853.40 698.85 854.63   L 698.85 862.43   A 1.00 0.99 -90.0 0 1 697.86 863.43   L 690.11 863.43   A 2.15 2.14 -72.9 0 0 688.33 864.38   Q 684.98 869.36 681.20 874.44   Q 677.54 879.35 672.30 881.15   Q 669.28 882.19 661.64 882.26   Q 648.82 882.38 638.05 882.18   Q 631.23 882.06 627.21 876.97   A 0.94 0.94 0.0 0 0 625.82 876.87   C 621.26 881.18 616.72 882.18 610.09 882.29   Q 600.93 882.43 583.70 882.24   Q 576.86 882.17 573.61 880.75   Q 566.42 877.61 562.98 870.38   Q 561.26 866.74 561.22 860.50   Q 561.18 853.68 561.36 850.46   A 0.61 0.61 0.0 0 1 561.97 849.88   L 570.47 849.88   A 0.68 0.68 0.0 0 1 571.15 850.58   Q 571.05 853.77 571.03 859.40   Q 571.00 864.64 572.71 867.37   Q 575.74 872.24 583.00 872.29   Q 604.78 872.45 611.75 872.21   Q 618.77 871.96 621.46 866.54   Q 622.96 863.52 622.80 858.67   Q 622.67 854.80 622.69 850.46   Q 622.69 849.88 623.28 849.88   L 631.83 849.88   A 0.69 0.69 0.0 0 1 632.52 850.56   Q 632.63 856.98 632.49 865.27   Q 632.42 869.91 635.73 871.49   Q 637.32 872.24 641.90 872.29   Q 650.09 872.38 658.28 872.32   C 665.38 872.28 669.20 872.76 673.31 867.82   Q 676.52 863.97 679.32 860.25   Z"></path>
  <path fill="#858585" d="   M 350.59 872.31   A 0.80 0.78 -3.7 0 0 351.29 871.53   L 351.29 849.57   A 0.63 0.63 0.0 0 1 351.92 848.94   L 360.74 848.94   A 0.81 0.81 0.0 0 1 361.55 849.75   L 361.55 881.75   A 0.45 0.45 0.0 0 1 361.12 882.20   Q 351.70 882.60 345.13 882.08   Q 339.91 881.67 336.35 878.16   Q 335.70 877.52 335.00 878.10   Q 326.98 884.70 316.92 880.84   Q 316.43 880.65 316.27 881.15   Q 313.12 890.99 304.71 896.04   C 293.18 902.95 279.16 900.50 270.61 890.16   Q 265.02 883.41 264.86 874.70   Q 264.78 870.27 264.73 858.88   A 0.94 0.94 0.0 0 1 265.67 857.94   L 273.83 857.94   A 0.92 0.92 0.0 0 1 274.75 858.89   Q 274.57 865.81 274.80 873.03   Q 274.96 877.79 276.36 880.53   Q 278.61 884.94 281.24 886.68   Q 292.83 894.33 302.45 884.95   Q 307.37 880.15 307.25 871.75   Q 307.12 863.68 307.17 852.92   Q 307.17 851.69 308.41 851.69   L 316.77 851.69   A 0.63 0.63 0.0 0 1 317.40 852.32   Q 317.37 854.33 317.33 863.52   Q 317.31 867.55 318.42 869.31   C 320.97 873.33 326.52 873.16 329.36 869.26   Q 330.46 867.75 330.45 864.04   Q 330.43 856.90 330.37 852.40   A 0.68 0.68 0.0 0 1 331.05 851.71   L 339.73 851.71   A 0.70 0.69 -0.0 0 1 340.43 852.40   Q 340.38 861.76 340.46 865.26   C 340.60 871.17 345.52 872.92 350.59 872.31   Z"></path>
  <path fill="#858585" d="   M 785.88 881.20   A 0.56 0.55 -81.4 0 0 785.18 881.72   Q 784.91 892.73 776.97 899.10   Q 774.53 901.06 769.79 902.93   Q 766.33 904.30 761.99 905.49   Q 761.29 905.68 758.86 905.27   Q 758.44 905.20 758.31 904.78   L 756.28 898.12   A 0.54 0.53 -18.3 0 1 756.62 897.45   Q 761.02 896.01 766.24 893.99   Q 771.83 891.83 774.08 887.43   Q 775.39 884.85 775.40 877.94   Q 775.41 867.80 775.30 862.63   Q 775.26 861.14 776.75 861.14   L 783.96 861.14   Q 785.54 861.14 785.36 862.70   C 784.71 868.33 786.17 872.15 792.78 872.30   Q 793.79 872.32 800.42 872.39   Q 805.10 872.44 806.96 871.28   Q 810.30 869.20 810.27 864.49   Q 810.19 853.46 810.14 850.39   A 0.30 0.30 0.0 0 1 810.44 850.08   L 819.21 850.08   Q 819.55 850.08 819.55 850.41   Q 819.69 859.14 819.59 868.65   Q 819.56 871.51 818.37 873.53   Q 815.47 878.44 810.50 880.76   Q 806.98 882.40 802.01 882.29   Q 795.80 882.15 790.31 882.23   C 788.85 882.25 787.11 881.54 785.88 881.20   Z"></path>
  <path fill="#858585" d="   M 550.08 873.45   Q 552.37 876.30 551.44 878.85   C 549.12 885.16 538.41 882.14 541.26 875.04   Q 542.00 873.19 545.26 866.86   Q 545.72 865.97 546.71 865.97   L 552.00 865.97   A 0.45 0.45 0.0 0 1 552.41 866.60   L 549.95 872.46   Q 549.72 873.00 550.08 873.45   Z"></path>
  <path fill="#858585" d="   M 819.40 905.34   Q 819.28 905.46 819.27 905.46   Q 810.23 905.55 801.67 905.48   Q 801.51 905.48 801.51 905.32   L 801.51 897.22   A 0.42 0.42 0.0 0 1 801.92 896.80   Q 804.77 896.78 809.50 896.92   Q 810.24 896.94 810.61 896.57   Q 810.97 896.21 810.95 895.47   Q 810.79 890.74 810.79 887.89   A 0.42 0.42 0.0 0 1 811.21 887.48   L 819.31 887.44   Q 819.47 887.44 819.47 887.60   Q 819.58 896.16 819.53 905.20   Q 819.53 905.21 819.40 905.34   Z"></path>
  <rect fill="#858585" x="-4.74" y="-4.74" transform="translate(505.61,892.36) rotate(0.2)" width="9.48" height="9.48" rx="0.72"></rect>
</svg>
