<?xml version="1.0" encoding="UTF-8"?>
<svg xmlns="http://www.w3.org/2000/svg" xmlns:xlink="http://www.w3.org/1999/xlink" version="1.1" width="5834px" height="7709px" style="shape-rendering:geometricPrecision; text-rendering:geometricPrecision; image-rendering:optimizeQuality; fill-rule:evenodd; clip-rule:evenodd">
  <g>
    <path style="opacity:1" fill="#0631f9" d="M 2682.5,1094.5 C 2673.7,1118.24 2664.7,1141.91 2655.5,1165.5C 2640.93,1199.86 2626.93,1234.53 2613.5,1269.5C 2598.65,1304.54 2584.32,1339.87 2570.5,1375.5C 2556.44,1409.34 2542.78,1443.34 2529.5,1477.5C 2513.46,1515.93 2497.8,1554.6 2482.5,1593.5C 2481.11,1596.01 2480.11,1598.67 2479.5,1601.5C 2465.13,1636.28 2451.13,1671.28 2437.5,1706.5C 2422.54,1740.7 2408.54,1775.37 2395.5,1810.5C 2380.93,1844.85 2366.93,1879.52 2353.5,1914.5C 2336.65,1954.88 2320.31,1995.55 2304.5,2036.5C 2292.13,2065.93 2280.13,2095.6 2268.5,2125.5C 2265.93,2130.98 2263.6,2136.65 2261.5,2142.5C 2247.11,2177.35 2233.11,2212.35 2219.5,2247.5C 2204.99,2281.87 2190.99,2316.54 2177.5,2351.5C 2160.65,2391.88 2144.31,2432.55 2128.5,2473.5C 2113.93,2507.85 2099.93,2542.52 2086.5,2577.5C 2075.26,2604.32 2064.26,2631.32 2053.5,2658.5C 2050.23,2666.05 2047.23,2673.72 2044.5,2681.5C 2029.6,2716.85 2015.27,2752.52 2001.5,2788.5C 1984.8,2828.93 1968.46,2869.6 1952.5,2910.5C 1937.95,2944.77 1923.95,2979.44 1910.5,3014.5C 1896.12,3048.12 1882.79,3081.62 1870.5,3115C 1869.61,3116.61 1868.61,3118.11 1867.5,3119.5C 1858.36,3142.92 1849.03,3166.25 1839.5,3189.5C 1835.44,3200.18 1831.27,3210.85 1827,3221.5C 1826.25,3222.64 1826.42,3223.64 1827.5,3224.5C 1909.37,3257.28 1991.04,3290.28 2072.5,3323.5C 1976.33,3335.6 1880,3336.6 1783.5,3326.5C 1486.79,3291.88 1233.62,3169.55 1024,2959.5C 814.578,2742.57 696.578,2482.91 670,2180.5C 649.469,1879.22 725.136,1605.22 897,1358.5C 1060.4,1132.85 1274.9,976.685 1540.5,890C 1794.81,812.44 2048.81,813.44 2302.5,893C 2441.4,938.599 2568.07,1005.77 2682.5,1094.5 Z"></path>
  </g>
  <g>
    <path style="opacity:1" fill="#f9cd06" d="M 3216.5,832.5 C 3821.11,1061.63 4426.11,1289.96 5031.5,1517.5C 4892.4,1864.15 4752.73,2210.48 4612.5,2556.5C 4130.33,2374.11 3647.99,2192.11 3165.5,2010.5C 3164.98,2006.52 3164.65,2002.52 3164.5,1998.5C 3161.47,1956.26 3156.47,1914.26 3149.5,1872.5C 3148.62,1867.35 3147.62,1862.35 3146.5,1857.5C 3137.97,1808.71 3126.3,1760.71 3111.5,1713.5C 3096.68,1664.03 3078.35,1616.03 3056.5,1569.5C 3032.7,1515.55 3005.03,1463.88 2973.5,1414.5C 2934.17,1352.16 2889.5,1293.82 2839.5,1239.5C 2791.16,1186.82 2739.16,1138.48 2683.5,1094.5C 2695.83,1062.34 2708.67,1030.34 2722,998.5C 2767.31,910.226 2838.81,856.393 2936.5,837C 2944.13,835.754 2951.8,834.754 2959.5,834C 3045.15,832.538 3130.82,832.038 3216.5,832.5 Z"></path>
  </g>
  <g>
    <path style="opacity:1" fill="#f9d405" d="M 3216.5,832.5 C 3773.5,832.333 4330.5,832.5 4887.5,833C 4997.1,841.178 5078.94,892.678 5133,987.5C 5173.42,1066.76 5178.09,1148.1 5147,1231.5C 5108.59,1326.9 5070.09,1422.24 5031.5,1517.5C 4426.11,1289.96 3821.11,1061.63 3216.5,832.5 Z"></path>
  </g>
  <g>
    <path style="opacity:1" fill="#01197d" d="M 2682.5,1094.5 C 2682.83,1094.5 2683.17,1094.5 2683.5,1094.5C 2739.16,1138.48 2791.16,1186.82 2839.5,1239.5C 2777.87,1215.35 2716.54,1190.68 2655.5,1165.5C 2664.7,1141.91 2673.7,1118.24 2682.5,1094.5 Z"></path>
  </g>
  <g>
    <path style="opacity:1" fill="#001983" d="M 2655.5,1165.5 C 2716.54,1190.68 2777.87,1215.35 2839.5,1239.5C 2889.5,1293.82 2934.17,1352.16 2973.5,1414.5C 2852.96,1367.22 2732.96,1318.89 2613.5,1269.5C 2626.93,1234.53 2640.93,1199.86 2655.5,1165.5 Z"></path>
  </g>
  <g>
    <path style="opacity:1" fill="#001989" d="M 2613.5,1269.5 C 2732.96,1318.89 2852.96,1367.22 2973.5,1414.5C 3005.03,1463.88 3032.7,1515.55 3056.5,1569.5C 2894.49,1504.83 2732.49,1440.16 2570.5,1375.5C 2584.32,1339.87 2598.65,1304.54 2613.5,1269.5 Z"></path>
  </g>
  <g>
    <path style="opacity:1" fill="#00198f" d="M 2570.5,1375.5 C 2732.49,1440.16 2894.49,1504.83 3056.5,1569.5C 3078.35,1616.03 3096.68,1664.03 3111.5,1713.5C 2918.16,1636.11 2724.82,1558.61 2531.5,1481C 2530.03,1480.29 2529.36,1479.12 2529.5,1477.5C 2542.78,1443.34 2556.44,1409.34 2570.5,1375.5 Z"></path>
  </g>
  <g>
    <path style="opacity:1" fill="#001996" d="M 2529.5,1477.5 C 2529.36,1479.12 2530.03,1480.29 2531.5,1481C 2724.82,1558.61 2918.16,1636.11 3111.5,1713.5C 3126.3,1760.71 3137.97,1808.71 3146.5,1857.5C 3146.63,1858.24 3146.46,1858.91 3146,1859.5C 2925.09,1770.14 2703.93,1681.48 2482.5,1593.5C 2497.8,1554.6 2513.46,1515.93 2529.5,1477.5 Z"></path>
  </g>
  <g>
    <path style="opacity:1" fill="#001f96" d="M 2482.5,1593.5 C 2703.93,1681.48 2925.09,1770.14 3146,1859.5C 3146.46,1858.91 3146.63,1858.24 3146.5,1857.5C 3147.62,1862.35 3148.62,1867.35 3149.5,1872.5C 3148.68,1870.86 3147.35,1869.69 3145.5,1869C 2923.3,1780.06 2701.3,1690.89 2479.5,1601.5C 2480.11,1598.67 2481.11,1596.01 2482.5,1593.5 Z"></path>
  </g>
  <g>
    <path style="opacity:1" fill="#001f9c" d="M 2479.5,1601.5 C 2701.3,1690.89 2923.3,1780.06 3145.5,1869C 3147.35,1869.69 3148.68,1870.86 3149.5,1872.5C 3156.47,1914.26 3161.47,1956.26 3164.5,1998.5C 2922.17,1901.17 2679.83,1803.83 2437.5,1706.5C 2451.13,1671.28 2465.13,1636.28 2479.5,1601.5 Z"></path>
  </g>
  <g>
    <path style="opacity:1" fill="#041fa1" d="M 2437.5,1706.5 C 2679.83,1803.83 2922.17,1901.17 3164.5,1998.5C 3164.65,2002.52 3164.98,2006.52 3165.5,2010.5C 3167.44,2047.16 3167.77,2083.83 3166.5,2120.5C 2909.26,2017.54 2652.26,1914.2 2395.5,1810.5C 2408.54,1775.37 2422.54,1740.7 2437.5,1706.5 Z"></path>
  </g>
  <g>
    <path style="opacity:1" fill="#061fa8" d="M 2395.5,1810.5 C 2652.26,1914.2 2909.26,2017.54 3166.5,2120.5C 3165.52,2161.51 3162.19,2202.17 3156.5,2242.5C 3156.5,2240.83 3156.5,2239.17 3156.5,2237.5C 2889.42,2130.97 2622.42,2024.14 2355.5,1917C 2354.24,1916.58 2353.58,1915.75 2353.5,1914.5C 2366.93,1879.52 2380.93,1844.85 2395.5,1810.5 Z"></path>
  </g>
  <g>
    <path style="opacity:1" fill="#061fae" d="M 2353.5,1914.5 C 2353.58,1915.75 2354.24,1916.58 2355.5,1917C 2622.42,2024.14 2889.42,2130.97 3156.5,2237.5C 3156.5,2239.17 3156.5,2240.83 3156.5,2242.5C 3151.79,2285.82 3144.13,2328.48 3133.5,2370.5C 2857.82,2260.1 2582.15,2149.6 2306.5,2039C 2305.24,2038.58 2304.58,2037.75 2304.5,2036.5C 2320.31,1995.55 2336.65,1954.88 2353.5,1914.5 Z"></path>
  </g>
  <g>
    <path style="opacity:1" fill="#f9c706" d="M 3165.5,2010.5 C 3647.99,2192.11 4130.33,2374.11 4612.5,2556.5C 4480.03,2886.57 4347.37,3216.57 4214.5,3546.5C 3732.33,3364.11 3249.99,3182.11 2767.5,3000.5C 2773.17,2994.17 2779.17,2988.17 2785.5,2982.5C 2793.5,2975.17 2801.17,2967.5 2808.5,2959.5C 2829.58,2938.42 2849.58,2916.42 2868.5,2893.5C 2894.67,2864.17 2918.67,2833.17 2940.5,2800.5C 2966.67,2764.19 2990.33,2726.19 3011.5,2686.5C 3030.54,2654.1 3047.2,2620.43 3061.5,2585.5C 3077.5,2551.17 3091.17,2515.84 3102.5,2479.5C 3105.07,2473.78 3107.07,2467.78 3108.5,2461.5C 3118.53,2431.74 3126.86,2401.41 3133.5,2370.5C 3144.13,2328.48 3151.79,2285.82 3156.5,2242.5C 3162.19,2202.17 3165.52,2161.51 3166.5,2120.5C 3167.77,2083.83 3167.44,2047.16 3165.5,2010.5 Z"></path>
  </g>
  <g>
    <path style="opacity:1" fill="#061fb5" d="M 2304.5,2036.5 C 2304.58,2037.75 2305.24,2038.58 2306.5,2039C 2582.15,2149.6 2857.82,2260.1 3133.5,2370.5C 3126.86,2401.41 3118.53,2431.74 3108.5,2461.5C 2828.51,2349.51 2548.51,2237.51 2268.5,2125.5C 2280.13,2095.6 2292.13,2065.93 2304.5,2036.5 Z"></path>
  </g>
  <g>
    <path style="opacity:1" fill="#0625b5" d="M 2268.5,2125.5 C 2548.51,2237.51 2828.51,2349.51 3108.5,2461.5C 3107.07,2467.78 3105.07,2473.78 3102.5,2479.5C 2822.05,2367.44 2541.72,2255.11 2261.5,2142.5C 2263.6,2136.65 2265.93,2130.98 2268.5,2125.5 Z"></path>
  </g>
  <g>
    <path style="opacity:1" fill="#0625ba" d="M 2261.5,2142.5 C 2541.72,2255.11 2822.05,2367.44 3102.5,2479.5C 3091.17,2515.84 3077.5,2551.17 3061.5,2585.5C 2781.13,2472.32 2500.46,2359.65 2219.5,2247.5C 2233.11,2212.35 2247.11,2177.35 2261.5,2142.5 Z"></path>
  </g>
  <g>
    <path style="opacity:1" fill="#0625c0" d="M 2219.5,2247.5 C 2500.46,2359.65 2781.13,2472.32 3061.5,2585.5C 3047.2,2620.43 3030.54,2654.1 3011.5,2686.5C 2733.27,2575.21 2455.27,2463.54 2177.5,2351.5C 2190.99,2316.54 2204.99,2281.87 2219.5,2247.5 Z"></path>
  </g>
  <g>
    <path style="opacity:1" fill="#0625c7" d="M 2177.5,2351.5 C 2455.27,2463.54 2733.27,2575.21 3011.5,2686.5C 2990.33,2726.19 2966.67,2764.19 2940.5,2800.5C 2669.83,2691.5 2399.17,2582.5 2128.5,2473.5C 2144.31,2432.55 2160.65,2391.88 2177.5,2351.5 Z"></path>
  </g>
  <g>
    <path style="opacity:1" fill="#0625cd" d="M 2128.5,2473.5 C 2399.17,2582.5 2669.83,2691.5 2940.5,2800.5C 2918.67,2833.17 2894.67,2864.17 2868.5,2893.5C 2609.84,2788.85 2350.84,2684.69 2091.5,2581C 2089.24,2580.45 2087.57,2579.28 2086.5,2577.5C 2099.93,2542.52 2113.93,2507.85 2128.5,2473.5 Z"></path>
  </g>
  <g>
    <path style="opacity:1" fill="#0625d3" d="M 2086.5,2577.5 C 2087.57,2579.28 2089.24,2580.45 2091.5,2581C 2350.84,2684.69 2609.84,2788.85 2868.5,2893.5C 2849.58,2916.42 2829.58,2938.42 2808.5,2959.5C 2557.41,2859.12 2306.41,2758.46 2055.5,2657.5C 2054.82,2657.86 2054.15,2658.2 2053.5,2658.5C 2064.26,2631.32 2075.26,2604.32 2086.5,2577.5 Z"></path>
  </g>
  <g>
    <path style="opacity:1" fill="#062bd3" d="M 2808.5,2959.5 C 2801.17,2967.5 2793.5,2975.17 2785.5,2982.5C 2785.42,2981.25 2784.76,2980.42 2783.5,2980C 2537.5,2881.33 2291.5,2782.67 2045.5,2684C 2044.75,2683.33 2044.41,2682.5 2044.5,2681.5C 2047.23,2673.72 2050.23,2666.05 2053.5,2658.5C 2054.15,2658.2 2054.82,2657.86 2055.5,2657.5C 2306.41,2758.46 2557.41,2859.12 2808.5,2959.5 Z"></path>
  </g>
  <g>
    <path style="opacity:1" fill="#062bd9" d="M 2044.5,2681.5 C 2044.41,2682.5 2044.75,2683.33 2045.5,2684C 2291.5,2782.67 2537.5,2881.33 2783.5,2980C 2784.76,2980.42 2785.42,2981.25 2785.5,2982.5C 2779.17,2988.17 2773.17,2994.17 2767.5,3000.5C 2742.15,3022.52 2716.48,3044.19 2690.5,3065.5C 2689.94,3064.21 2688.94,3063.38 2687.5,3063C 2458.91,2971.2 2230.25,2879.7 2001.5,2788.5C 2015.27,2752.52 2029.6,2716.85 2044.5,2681.5 Z"></path>
  </g>
  <g>
    <path style="opacity:1" fill="#062be0" d="M 2001.5,2788.5 C 2230.25,2879.7 2458.91,2971.2 2687.5,3063C 2688.94,3063.38 2689.94,3064.21 2690.5,3065.5C 2649.34,3098.32 2606.01,3127.98 2560.5,3154.5C 2358.13,3072.65 2155.46,2991.32 1952.5,2910.5C 1968.46,2869.6 1984.8,2828.93 2001.5,2788.5 Z"></path>
  </g>
  <g>
    <path style="opacity:1" fill="#062be6" d="M 1952.5,2910.5 C 2155.46,2991.32 2358.13,3072.65 2560.5,3154.5C 2551.54,3160.65 2542.2,3166.32 2532.5,3171.5C 2499.17,3190.67 2464.83,3208 2429.5,3223.5C 2256.65,3153.66 2083.65,3083.99 1910.5,3014.5C 1923.95,2979.44 1937.95,2944.77 1952.5,2910.5 Z"></path>
  </g>
  <g>
    <path style="opacity:1" fill="#f2c706" d="M 2767.5,3000.5 C 3249.99,3182.11 3732.33,3364.11 4214.5,3546.5C 4183.81,3622.24 4153.15,3697.9 4122.5,3773.5C 3593.23,3573.58 3063.9,3373.74 2534.5,3174C 2533.24,3173.58 2532.58,3172.75 2532.5,3171.5C 2542.2,3166.32 2551.54,3160.65 2560.5,3154.5C 2606.01,3127.98 2649.34,3098.32 2690.5,3065.5C 2716.48,3044.19 2742.15,3022.52 2767.5,3000.5 Z"></path>
  </g>
  <g>
    <path style="opacity:1" fill="#062bec" d="M 1910.5,3014.5 C 2083.65,3083.99 2256.65,3153.66 2429.5,3223.5C 2378.41,3247.03 2325.75,3266.7 2271.5,3282.5C 2270.43,3280.72 2268.76,3279.55 2266.5,3279C 2133.52,3225.73 2000.52,3172.56 1867.5,3119.5C 1868.61,3118.11 1869.61,3116.61 1870.5,3115C 1882.79,3081.62 1896.12,3048.12 1910.5,3014.5 Z"></path>
  </g>
  <g>
    <path style="opacity:1" fill="#062bf2" d="M 1867.5,3119.5 C 2000.52,3172.56 2133.52,3225.73 2266.5,3279C 2268.76,3279.55 2270.43,3280.72 2271.5,3282.5C 2231.06,3294.53 2190.06,3304.19 2148.5,3311.5C 2146.8,3311.66 2145.13,3311.49 2143.5,3311C 2042.25,3270.2 1940.92,3229.7 1839.5,3189.5C 1849.03,3166.25 1858.36,3142.92 1867.5,3119.5 Z"></path>
  </g>
  <g>
    <path style="opacity:1" fill="#f2c006" d="M 2532.5,3171.5 C 2532.58,3172.75 2533.24,3173.58 2534.5,3174C 3063.9,3373.74 3593.23,3573.58 4122.5,3773.5C 3985.68,4114.46 3848.35,4455.13 3710.5,4795.5C 2981.99,4520.11 2253.33,4245.11 1524.5,3970.5C 1610.83,3755.83 1697.17,3541.17 1783.5,3326.5C 1880,3336.6 1976.33,3335.6 2072.5,3323.5C 2098.17,3320.78 2123.51,3316.78 2148.5,3311.5C 2190.06,3304.19 2231.06,3294.53 2271.5,3282.5C 2325.75,3266.7 2378.41,3247.03 2429.5,3223.5C 2464.83,3208 2499.17,3190.67 2532.5,3171.5 Z"></path>
  </g>
  <g>
    <path style="opacity:1" fill="#0732f2" d="M 1839.5,3189.5 C 1940.92,3229.7 2042.25,3270.2 2143.5,3311C 2145.13,3311.49 2146.8,3311.66 2148.5,3311.5C 2123.51,3316.78 2098.17,3320.78 2072.5,3323.5C 1991.04,3290.28 1909.37,3257.28 1827.5,3224.5C 1826.42,3223.64 1826.25,3222.64 1827,3221.5C 1831.27,3210.85 1835.44,3200.18 1839.5,3189.5 Z"></path>
  </g>
  <g>
    <path style="opacity:1" fill="#f2bb05" d="M 1524.5,3970.5 C 2253.33,4245.11 2981.99,4520.11 3710.5,4795.5C 3681.3,4882.05 3624.63,4943.22 3540.5,4979C 3513.78,4989.6 3486.12,4996.26 3457.5,4999C 2814.85,5000.66 2172.18,5001 1529.5,5000C 1426.57,4992.48 1347.41,4945.65 1292,4859.5C 1244.34,4777 1237.01,4691 1270,4601.5C 1354.85,4391.14 1439.68,4180.81 1524.5,3970.5 Z"></path>
  </g>
  <g>
    <path style="opacity:1" fill="#181918" d="M 1289.5,6249.5 C 1333.47,6246.57 1367.64,6263.24 1392,6299.5C 1399.45,6311.86 1404.12,6325.2 1406,6339.5C 1406.67,6596.5 1406.67,6853.5 1406,7110.5C 1394.3,7239.69 1337.13,7343.19 1234.5,7421C 1126.56,7496.1 1008.56,7517.77 880.5,7486C 768.566,7453.04 683.399,7386.21 625,7285.5C 593.662,7228.15 576.328,7166.82 573,7101.5C 572.333,7022.5 572.333,6943.5 573,6864.5C 581.139,6812.03 611.306,6780.86 663.5,6771C 715.888,6767.27 753.055,6789.1 775,6836.5C 777.941,6844.26 779.941,6852.26 781,6860.5C 781.333,6936.17 781.667,7011.83 782,7087.5C 786.877,7165.81 822.71,7224.97 889.5,7265C 944.925,7294.15 1002.26,7298.49 1061.5,7278C 1135.32,7247.51 1179.82,7193.01 1195,7114.5C 1195.8,7108.51 1196.47,7102.51 1197,7096.5C 1197.01,6843.15 1197.67,6589.81 1199,6336.5C 1209.91,6287.32 1240.08,6258.32 1289.5,6249.5 Z"></path>
  </g>
  <g>
    <path style="opacity:1" fill="#181918" d="M 1602.5,6249.5 C 1653.64,6246.97 1690.14,6268.64 1712,6314.5C 1715.73,6324.17 1718.07,6334.17 1719,6344.5C 1719.33,6524.83 1719.67,6705.17 1720,6885.5C 1728.95,6938.79 1760.12,6969.62 1813.5,6978C 1924.17,6978.67 2034.83,6978.67 2145.5,6978C 2188.63,6971.53 2218.13,6948.03 2234,6907.5C 2236.57,6899.01 2238.23,6890.34 2239,6881.5C 2239.33,6840.17 2239.67,6798.83 2240,6757.5C 2246.48,6717.36 2268.32,6689.19 2305.5,6673C 2351.39,6657.85 2390.89,6667.68 2424,6702.5C 2437.64,6719.06 2445.64,6738.06 2448,6759.5C 2448.67,6804.5 2448.67,6849.5 2448,6894.5C 2439.46,6996.46 2393.63,7076.63 2310.5,7135C 2264.73,7165.26 2214.39,7182.59 2159.5,7187C 2039.5,7187.67 1919.5,7187.67 1799.5,7187C 1695.05,7176.55 1614.21,7127.72 1557,7040.5C 1532.38,7000.58 1517.38,6957.25 1512,6910.5C 1510.35,6720.18 1510.01,6529.85 1511,6339.5C 1521.24,6288.76 1551.74,6258.76 1602.5,6249.5 Z"></path>
  </g>
  <g>
    <path style="opacity:1" fill="#181918" d="M 2958.5,6353.5 C 3004.39,6351.69 3038.89,6370.35 3062,6409.5C 3080.12,6449.15 3076.79,6486.82 3052,6522.5C 3018.27,6560.89 2977.11,6571.73 2928.5,6555C 2882.74,6532.99 2861.57,6496.49 2865,6445.5C 2874.58,6392.75 2905.75,6362.08 2958.5,6353.5 Z"></path>
  </g>
  <g>
    <path style="opacity:1" fill="#181918" d="M 5145.5,6353.5 C 5191.2,6351.26 5225.7,6369.59 5249,6408.5C 5267.28,6447.36 5264.62,6484.7 5241,6520.5C 5212.59,6555.64 5176.09,6568.81 5131.5,6560C 5096.31,6550.15 5071.81,6528.31 5058,6494.5C 5043.88,6449.2 5054.05,6410.37 5088.5,6378C 5105.25,6364.48 5124.25,6356.31 5145.5,6353.5 Z"></path>
  </g>
  <g>
    <path style="opacity:1" fill="#181918" d="M 2641.5,6666.5 C 2687.11,6662.56 2722.28,6679.56 2747,6717.5C 2755.52,6732.73 2760.19,6749.06 2761,6766.5C 2761.33,6878.5 2761.67,6990.5 2762,7102.5C 2772.36,7182.43 2813.86,7239.6 2886.5,7274C 2963.61,7303.92 3034.95,7293.92 3100.5,7244C 3144.98,7206.55 3170.15,7158.72 3176,7100.5C 3176.33,6987.83 3176.67,6875.17 3177,6762.5C 3181.57,6720.95 3202.74,6691.45 3240.5,6674C 3282.78,6658.6 3320.78,6665.6 3354.5,6695C 3371.15,6711.79 3381.31,6731.96 3385,6755.5C 3386.28,6802.81 3386.94,6850.15 3387,6897.5C 3394.93,6938.43 3419.1,6964.27 3459.5,6975C 3465.75,6976.52 3472.09,6977.52 3478.5,6978C 3694.5,6978.67 3910.5,6978.67 4126.5,6978C 4160.69,6975.17 4187.19,6959.67 4206,6931.5C 4212.78,6919.71 4216.78,6907.04 4218,6893.5C 4218.33,6848.83 4218.67,6804.17 4219,6759.5C 4225.6,6714.44 4250.44,6684.61 4293.5,6670C 4344.14,6658.43 4383.98,6673.93 4413,6716.5C 4420.26,6729.28 4424.93,6742.95 4427,6757.5C 4427.67,6807.5 4427.67,6857.5 4427,6907.5C 4415,7025.46 4355.5,7109.63 4248.5,7160C 4213.39,7175.28 4176.73,7184.28 4138.5,7187C 3914.17,7187.67 3689.83,7187.67 3465.5,7187C 3435.63,7184.86 3406.63,7178.69 3378.5,7168.5C 3345.27,7306.88 3264.27,7406.04 3135.5,7466C 3024.5,7512 2913.5,7512 2802.5,7466C 2703,7421.17 2630.83,7349 2586,7249.5C 2565.36,7201.29 2554.03,7150.96 2552,7098.5C 2551.33,6986.5 2551.33,6874.5 2552,6762.5C 2559.31,6709.36 2589.15,6677.36 2641.5,6666.5 Z"></path>
  </g>
  <g>
    <path style="opacity:1" fill="#181918" d="M 4724.5,6666.5 C 4774.61,6662.63 4811.44,6682.63 4835,6726.5C 4839.84,6737.35 4842.84,6748.68 4844,6760.5C 4844.67,6896.5 4844.67,7032.5 4844,7168.5C 4841.82,7244.03 4819.82,7313.03 4778,7375.5C 4714.29,7460.1 4629.13,7501.6 4522.5,7500C 4486.11,7496.23 4458.61,7478.73 4440,7447.5C 4418.63,7403.44 4423.3,7362.44 4454,7324.5C 4471.1,7306.7 4491.94,7295.86 4516.5,7292C 4575.14,7294.35 4611.98,7267.19 4627,7210.5C 4632.09,7192.19 4634.76,7173.52 4635,7154.5C 4635.01,7019.8 4635.68,6885.14 4637,6750.5C 4644.52,6715.63 4664.35,6690.47 4696.5,6675C 4705.68,6671.22 4715.01,6668.38 4724.5,6666.5 Z"></path>
  </g>
  <g>
    <path style="opacity:1" fill="#181918" d="M 5141.5,6666.5 C 5193.11,6662.54 5230.28,6683.54 5253,6729.5C 5257.72,6741.39 5260.39,6753.73 5261,6766.5C 5261.67,6896.83 5261.67,7027.17 5261,7157.5C 5260.68,7236.16 5239.01,7308.16 5196,7373.5C 5130.16,7462.49 5041.66,7504.33 4930.5,7499C 4892.28,7491.56 4865.61,7469.89 4850.5,7434C 4837.9,7397.84 4842.4,7364.01 4864,7332.5C 4881.77,7309.86 4904.94,7296.36 4933.5,7292C 4983.78,7294.98 5018.61,7273.48 5038,7227.5C 5045.33,7208.51 5049.66,7188.84 5051,7168.5C 5051.33,7033.17 5051.67,6897.83 5052,6762.5C 5059.31,6709.36 5089.15,6677.36 5141.5,6666.5 Z"></path>
  </g>
  <g>
    <path style="opacity:1" fill="#181918" d="M 1912.5,7291.5 C 2026.5,7291.33 2140.5,7291.5 2254.5,7292C 2306.15,7302.31 2335.98,7333.48 2344,7385.5C 2344.96,7429.53 2344.62,7473.53 2343,7517.5C 2333.95,7559.88 2308.79,7587.71 2267.5,7601C 2220.97,7611.27 2183.14,7597.77 2154,7560.5C 2141.34,7542.53 2135.17,7522.53 2135.5,7500.5C 2063.17,7500.67 1990.83,7500.5 1918.5,7500C 1883.11,7496.23 1855.95,7479.4 1837,7449.5C 1814.62,7406.05 1818.29,7365.05 1848,7326.5C 1865.63,7307.6 1887.13,7295.94 1912.5,7291.5 Z"></path>
  </g>
  <g>
    <path style="opacity:1" fill="#181918" d="M 3891.5,7291.5 C 4005.5,7291.33 4119.5,7291.5 4233.5,7292C 4276.18,7299.43 4304.68,7323.59 4319,7364.5C 4331.43,7415.88 4315.93,7456.38 4272.5,7486C 4261.29,7492.51 4249.29,7496.85 4236.5,7499C 4123.52,7500.65 4010.52,7500.98 3897.5,7500C 3845.81,7492.64 3814.31,7463.48 3803,7412.5C 3797.76,7372.2 3810.59,7339.03 3841.5,7313C 3856.45,7301.69 3873.12,7294.52 3891.5,7291.5 Z"></path>
  </g>
</svg>
