<svg width="500" height="144" viewBox="0 0 500 144" fill="none" xmlns="http://www.w3.org/2000/svg">
<g clip-path="url(#clip0_761_150)">
<path d="M500 0V138.741H459.931L471.502 118.162H479.965V11.7786L500 0Z" fill="white"/>
<path d="M465.129 0V102.895H445.095V11.886L465.129 0Z" fill="white"/>
<path d="M334.996 0V102.895H254.858V40.8362L274.893 47.9463V82.3164H314.962V11.886L334.996 0Z" fill="white"/>
<path d="M153.327 5.33936L141.756 25.9185H61.6182L73.1896 5.33936H153.327Z" fill="#999999"/>
<path d="M233.517 5.33936L221.92 25.9185H178.377L190.001 5.33936H233.517Z" fill="white"/>
<path d="M417.615 120.309L405.991 140.888H362.475L374.098 120.309H417.615Z" fill="#999999"/>
<path d="M274.893 31.3113V48.1073L294.927 59.9933V18.8351L274.893 31.3113Z" fill="#999999"/>
<path d="M430.258 41.1582V102.895H349.833V0L370.129 11.9128V82.3164H410.224V53.0442L430.258 41.1582Z" fill="white"/>
<path d="M239.996 41.1582V102.895H0V41.1582L20.0345 53.0442V82.3164H140.268V61.7373H80.138L91.7094 41.1582H160.302V82.3164H219.961V53.0442L239.996 41.1582Z" fill="#999999"/>
<path d="M9.69096 125.567H14.7322L18.2846 129.485H19.1466C22.0721 129.485 23.5349 127.66 23.5349 125.782C23.5349 123.904 22.0721 122.053 19.1466 122.053H8.14985L4.98926 118.243H19.9563C25.4155 118.243 28.1321 121.999 28.1321 125.728C28.1321 129.109 25.9641 132.463 21.6281 133.16L30.8486 143.329H25.3111L16.5084 133.268H9.6126V143.329H5.22434V129.458H13.2172L9.76932 125.54L9.69096 125.567Z" fill="#999999"/>
<path d="M43.4386 129.967H47.8007L45.1625 135.495H58.1183L49.1329 117.894H53.9913L66.7904 143.329H62.1148L60.0251 139.251H43.4125L41.4795 143.329H36.8301L43.4386 129.967Z" fill="#999999"/>
<path d="M77.9443 118.243L84.7357 128.25H80.1907L72.7725 118.243H77.9182H77.9443ZM84.0304 132.758L94.5048 118.243H99.6505L88.4187 133.08V143.329H84.0304V132.758Z" fill="#999999"/>
<path d="M112.267 129.967H116.629L113.991 135.495H126.946L117.961 117.894H122.819L135.618 143.329H130.943L128.853 139.251H112.241L110.308 143.329H105.658L112.267 129.967Z" fill="#999999"/>
<path d="M148.234 129.967H152.597L149.958 135.495H162.914L153.929 117.894H158.787L171.586 143.329H166.911L164.821 139.251H148.208L146.275 143.329H141.626L148.234 129.967Z" fill="#999999"/>
<path d="M247.206 118.243V121.945H219.126V118.243H247.206ZM230.932 125.943H235.347V143.329H230.932V125.943Z" fill="white"/>
<path d="M253.213 118.243H275.441V121.999H259.351L261.154 125.836H256.765L253.213 118.243ZM275.65 139.573V143.329H253.213V139.573H275.65ZM274.005 128.894V132.651H254.127V128.894H274.005Z" fill="white"/>
<path d="M295.763 117.572C300.517 117.572 304.906 119.504 307.596 122.992L300.23 130.477H295.058L301.771 123.636C300.047 122.482 297.931 121.838 295.92 121.838C289.547 121.838 286.36 126.319 286.36 130.799C286.36 135.28 289.573 139.761 295.92 139.761C299.446 139.761 302.32 138.124 304.148 135.79L307.596 138.553C304.827 141.988 300.282 144.027 295.763 144.027C289.259 144.027 281.658 139.627 281.658 130.799C281.658 121.972 289.285 117.572 295.763 117.572Z" fill="white"/>
<path d="M313.604 118.243H317.992V143.329H313.604V118.243ZM334.369 118.243H338.784V143.329H334.369V132.651H321.936V128.894H334.369V118.243Z" fill="white"/>
<path d="M206.17 143.329V118.189H186.579V133.348L191.49 131.604V123.233H201.285V140.431L206.17 143.329Z" fill="white"/>
<path d="M181.694 140.27V136.165L186.579 133.268V143.329L181.694 140.27Z" fill="#999999"/>
</g>
<defs>
<clipPath id="clip0_761_150">
<rect width="500" height="144" fill="white"/>
</clipPath>
</defs>
</svg>
