<?xml version="1.0" encoding="UTF-8"?>
<svg id="Layer_1" xmlns="http://www.w3.org/2000/svg" version="1.1" xmlns:xlink="http://www.w3.org/1999/xlink" viewBox="0 0 500 144">
  <!-- Generator: Adobe Illustrator 30.1.0, SVG Export Plug-In . SVG Version: 2.1.1 Build 136)  -->
  <defs>
    <style>
      .st0 {
        fill: none;
      }

      .st1 {
        fill: #333031;
      }

      .st2 {
        fill: #999;
      }

      .st3 {
        clip-path: url(#clippath);
      }
    </style>
    <clipPath id="clippath">
      <rect class="st0" y="0" width="500" height="144"/>
    </clipPath>
  </defs>
  <g class="st3">
    <g>
      <path class="st1" d="M500,0v138.74h-40.07l11.57-20.58h8.46V11.78L500,0Z"/>
      <path class="st1" d="M465.13,0v102.89h-20.03V11.89L465.13,0Z"/>
      <path class="st1" d="M335,0v102.89h-80.14v-62.06l20.04,7.11v34.37h40.07V11.89L335,0Z"/>
      <path class="st2" d="M153.33,5.34l-11.57,20.58H61.62l11.57-20.58h80.14Z"/>
      <path class="st1" d="M233.52,5.34l-11.6,20.58h-43.54l11.62-20.58h43.52Z"/>
      <path class="st2" d="M417.61,120.31l-11.62,20.58h-43.52l11.62-20.58h43.52Z"/>
      <path class="st2" d="M274.89,31.31v16.8l20.03,11.89V18.84l-20.03,12.48Z"/>
      <path class="st1" d="M430.26,41.16v61.74h-80.42V0l20.3,11.91v70.4h40.1v-29.27l20.03-11.89Z"/>
      <path class="st2" d="M240,41.16v61.74H0v-61.74l20.03,11.89v29.27h120.23v-20.58h-60.13l11.57-20.58h68.59v41.16h59.66v-29.27l20.04-11.89Z"/>
      <path class="st2" d="M9.69,125.57h5.04l3.55,3.92h.86c2.93,0,4.39-1.82,4.39-3.7s-1.46-3.73-4.39-3.73h-11l-3.16-3.81h14.97c5.46,0,8.18,3.76,8.18,7.49,0,3.38-2.17,6.74-6.5,7.43l9.22,10.17h-5.54l-8.8-10.06h-6.9v10.06h-4.39v-13.87h7.99l-3.45-3.92-.08.03Z"/>
      <path class="st2" d="M43.44,129.97h4.36l-2.64,5.53h12.96l-8.99-17.6h4.86l12.8,25.43h-4.68l-2.09-4.08h-16.61l-1.93,4.08h-4.65l6.61-13.36Z"/>
      <path class="st2" d="M77.94,118.24l6.79,10.01h-4.55l-7.42-10.01h5.17ZM84.03,132.76l10.47-14.51h5.15l-11.23,14.84v10.25h-4.39v-10.57Z"/>
      <path class="st2" d="M112.27,129.97h4.36l-2.64,5.53h12.96l-8.99-17.6h4.86l12.8,25.43h-4.68l-2.09-4.08h-16.61l-1.93,4.08h-4.65l6.61-13.36Z"/>
      <path class="st2" d="M148.23,129.97h4.36l-2.64,5.53h12.96l-8.99-17.6h4.86l12.8,25.43h-4.68l-2.09-4.08h-16.61l-1.93,4.08h-4.65l6.61-13.36Z"/>
      <path class="st1" d="M247.21,118.24v3.7h-28.08v-3.7h28.08ZM230.93,125.94h4.41v17.39h-4.41v-17.39Z"/>
      <path class="st1" d="M253.21,118.24h22.23v3.76h-16.09l1.8,3.84h-4.39l-3.55-7.59ZM275.65,139.57v3.76h-22.44v-3.76h22.44ZM274.01,128.89v3.76h-19.88v-3.76h19.88Z"/>
      <path class="st1" d="M295.76,117.57c4.75,0,9.14,1.93,11.83,5.42l-7.37,7.49h-5.17l6.71-6.84c-1.72-1.15-3.84-1.8-5.85-1.8-6.37,0-9.56,4.48-9.56,8.96s3.21,8.96,9.56,8.96c3.53,0,6.4-1.64,8.23-3.97l3.45,2.76c-2.77,3.44-7.31,5.47-11.83,5.47-6.5,0-14.11-4.4-14.11-13.23s7.63-13.23,14.11-13.23Z"/>
      <path class="st1" d="M313.6,118.24h4.39v25.09h-4.39v-25.09ZM334.37,118.24h4.42v25.09h-4.42v-10.68h-12.43v-3.76h12.43v-10.65Z"/>
      <path class="st1" d="M206.17,143.33v-25.14h-19.59v15.16l4.91-1.74v-8.37h9.79v17.2l4.88,2.9Z"/>
      <path class="st2" d="M181.69,140.27v-4.11l4.88-2.9v10.06l-4.88-3.06Z"/>
    </g>
  </g>
</svg>